# xmcd
#
# Track frame offsets: 
#        150
#        21732
#        32910
#        52217
#        64887
#        88940
#        103600
#        128805
#        148820
#        176295
#        199297
#        223367
#        236265
#        250587
#        268230
#        284277
#        303792
#
# Disc length: 4231 seconds
#
# Revision: 0
# Processed by: cddbd v1.5.2PL0 Copyright (c) Steve Scherf et al.
# Submitted via: ExactAudioCopyFreeDBPlugin 1.0
#
DISCID=0c108511
DTITLE=Will Oldham - Guarapero -Lost Blues 2
DYEAR=2000
DGENRE=Lo-Fi
TTITLE0=Drinking Woman
TTITLE1=The Spider’s Dude Is Often There (Peel session 27.11.93)
TTITLE2=Gezundheit
TTITLE3=Let the Wires Ring
TTITLE4=Big Balls
TTITLE5=For the Mekons et al. (live at the Lounge Ax 17.11.94)
TTITLE6=Stable Will (live at the Lounge Ax 17.11.94)
TTITLE7=Every Mother’s Son
TTITLE8=No More Rides
TTITLE9=The Risen Lord (unreleased single version)
TTITLE10=Boy, Have You Cum (unreleased single version)
TTITLE11=Patience
TTITLE12=Take However Long You Want
TTITLE13=Sugarcane Juice Drinker (unreleased track from Joya sessions)
TTITLE14=Call Me a Liar (unreleased track from Joya sessions)
TTITLE15=O Lord Are You in Need (Peel session 07.07.95)
TTITLE16=(not indicated track)
EXTD=
EXTT0=
EXTT1=
EXTT2=
EXTT3=
EXTT4=
EXTT5=
EXTT6=
EXTT7=
EXTT8=
EXTT9=
EXTT10=
EXTT11=
EXTT12=
EXTT13=
EXTT14=
EXTT15=
EXTT16=
PLAYORDER=
